HIERARCHY
ROOT Spine
{
    OFFSET 0.0 0.0 -0.0
    CHANNELS 6 Xposition Yposition Zposition Zrotation Xrotation Yrotation
    JOINT ShoulderCenter
    {
        OFFSET 0.0 33.62454605102539 0.0
        CHANNELS 3 Zrotation Xrotation Yrotation
        JOINT LeftShoulder
        {
            OFFSET 17.760719299316406 0.0 0.0
            CHANNELS 3 Zrotation Xrotation Yrotation
            JOINT LeftElbow
            {
                OFFSET 29.747974395751953 0.0 0.0
                CHANNELS 3 Zrotation Xrotation Yrotation
                JOINT LeftHand
                {
                    OFFSET 33.529144287109375 0.0 0.0
                    CHANNELS 3 Zrotation Xrotation Yrotation
                    End Site
                    {
                        OFFSET 13.41165828704834 0.0 0.0
                    }
                }
            }
        }
        JOINT RightShoulder
        {
            OFFSET -17.760719299316406 0.0 0.0
            CHANNELS 3 Zrotation Xrotation Yrotation
            JOINT RightElbow
            {
                OFFSET -29.747974395751953 0.0 0.0
                CHANNELS 3 Zrotation Xrotation Yrotation
                JOINT RightHand
                {
                    OFFSET -33.529144287109375 0.0 0.0
                    CHANNELS 3 Zrotation Xrotation Yrotation
                    End Site
                    {
                        OFFSET -13.41165828704834 0.0 0.0
                    }
                }
            }
        }
        End Site
        {
            OFFSET 0.0 13.44981861114502 0.0
        }
    }
    JOINT LeftHip
    {
        OFFSET 15.640899135964778 -15.640899135964778 0.0
        CHANNELS 3 Zrotation Xrotation Yrotation
        JOINT LeftKnee
        {
            OFFSET 0.0 -42.08383560180664 0.0
            CHANNELS 3 Zrotation Xrotation Yrotation
            JOINT LeftFoot
            {
                OFFSET 0.0 -50.35370635986328 0.0
                CHANNELS 3 Zrotation Xrotation Yrotation
                End Site
                {
                    OFFSET 0.0 0.0 20.141483306884766
                }
            }
        }
    }
    JOINT RightHip
    {
        OFFSET -15.640899135964778 -15.640899135964778 0.0
        CHANNELS 3 Zrotation Xrotation Yrotation
        JOINT RightKnee
        {
            OFFSET 0.0 -42.08383560180664 0.0
            CHANNELS 3 Zrotation Xrotation Yrotation
            JOINT RightFoot
            {
                OFFSET 0.0 -50.35370635986328 0.0
                CHANNELS 3 Zrotation Xrotation Yrotation
                End Site
                {
                    OFFSET 0.0 0.0 20.141483306884766
                }
            }
        }
    }
}
MOTION
Frames: 8
Frame Time: 0.03333333333333333
120.79999542236328 -14.0 17.700000762939453 25.573346061295318 -2.897218083576202 -93.76685940213136 9.677061836561585e-07 -2.6570466353002927e-06 4.741157135124031 111.64563697361648 -22.4626319107299 -151.7795536448603 -1.7588944998968794e-06 3.4265820479078954e-06 64.2799785025316 0.0 0.0 5.466578358765419e-16 -109.65851585169611 -16.816640568349065 155.51700985225085 3.0786773365109428e-06 1.565846641120782e-06 -74.69429273232925 7.951386703658792e-16 -6.3611093629270335e-15 3.975693351829396e-16 108.60341679348528 -75.90481544959226 -176.8561464704325 46.57928362401866 14.026315133787158 -75.01877415912242 4.7708320221952736e-15 2.8138652650069763e-31 6.758678698109972e-15 -128.47688409960594 -78.8313352258373 156.53094236292532 -51.911885899384465 10.288899028820284 76.96511702977922 1.5902773407317584e-15 1.5902773407317584e-15 -4.373262687012335e-15
121.0 -14.0 17.600000381469727 24.655885880016182 -2.8999013091815833 -93.50034467826775 1.311800643294792e-06 1.0437282093219092e-06 4.398547875489121 111.01463021555831 -23.135336462853974 -151.9271416295673 -7.537419133775045e-07 5.181513409246412e-06 63.22810855818448 1.6828017761316229e-31 6.3611093629270335e-15 -3.0314661807699143e-15 -109.23323495646025 -17.42216427167746 155.51095280327965 -1.2830063950037266e-06 2.474072230821449e-06 -74.29771063055499 -3.975693351829397e-16 6.4605016967227685e-15 1.5902773407317584e-15 105.02211099554184 -76.64977361660979 178.96396553946533 46.39605131249908 14.09306070450693 -75.82754482140906 -1.5902773407317588e-15 4.4139062980501586e-32 -3.1805546814635176e-15 -124.98221279141751 -79.15282455523007 159.83840916888107 -52.09518801165894 9.816117118845481 77.20437807890413 0.0 0.0 6.3611093629270335e-15
121.30000305175781 -13.899999618530273 17.600000381469727 23.96248783856659 -3.41800118995404 -93.21921007665934 -4.080635566316629e-07 -1.8738572675479486e-07 3.519182140081124 109.88940584893976 -22.71226484296831 -151.9808652095385 -2.4011813693217205e-06 -1.0423115186126962e-06 61.34212565719704 5.517382872562698e-32 6.3611093629270335e-15 -9.93923337957349e-16 -108.4561712170015 -17.673380257710573 155.1952077240609 4.189449693207028e-06 2.1234381258705737e-06 -73.74194824295469 1.7890620083232284e-15 6.3611093629270335e-15 -7.951386703658794e-16 101.6367731947496 -77.28909819790789 175.94400837167694 46.27806208612316 13.955299357833063 -77.45546584397786 2.2069531490250793e-32 1.5902773407317582e-15 -1.5902773407317582e-15 -121.49265192658143 -79.43278082022923 163.6403227271456 -52.008106324954916 9.359263009328576 80.96794236385756 0.0 0.0 -8.547740706433203e-15
121.5 -14.0 17.5 23.736975151997964 -3.5830194141023184 -93.59789095540744 1.0378628004819764e-06 -1.3877105583862644e-06 3.4281158794067066 108.95937028010252 -21.733151471116116 -151.82056105854676 1.1945636288009956e-06 -1.3042004090953618e-06 60.483584538769044 -2.537996121378841e-31 6.3611093629270335e-15 4.572047354603805e-15 -107.78545943756008 -17.680145623051025 154.69729727804264 -4.497837284459507e-06 1.0205607766266437e-06 -73.06379018187026 1.789062008323228e-15 -1.8621167194899106e-32 -1.1927080055488186e-15 99.96971319225173 -77.27626252217661 174.0549726485876 46.04834642901219 13.778704565716119 -79.75807794630228 1.5902773407317588e-15 -1.5902773407317588e-15 -2.9817700138720476e-15 -122.20371595161386 -80.2677823773506 163.43462489545888 -51.982618308612906 9.011020934111455 84.26386757900222 1.5902773407317584e-15 1.6552148617688095e-32 1.1927080055488188e-15
121.5999984741211 -14.0 17.399999618530273 22.97442584588481 -3.5803545522476905 -93.1400100237265 2.2707834607889032e-07 -7.551096255471272e-07 2.922398580182243 107.48082581381196 -20.925399160611665 -152.75697029609137 -3.839885770934408e-06 4.200197371257192e-07 59.65881674758496 0.0 0.0 3.1805546814635168e-15 -107.55507735892407 -17.504376176200687 154.49464727091038 -2.942431817546341e-06 3.3851679659752734e-07 -72.39340988371899 7.951386703658792e-16 6.3611093629270335e-15 5.963540027744094e-16 96.3617864606009 -78.0532231944843 170.14024903232246 46.04846258153753 13.530929341002865 -80.20713467718164 -3.1805546814635164e-15 1.4896933755919285e-31 -5.3671860249696836e-15 -117.2685150321898 -80.32254142147518 168.55208620189578 -51.98986398186448 8.978179743491907 85.67774070765934 0.0 0.0 -2.5842006786891076e-15
121.69999694824219 -14.0 17.299999237060547 22.817061527140016 -3.7547133944791264 -93.5166170729031 -2.2826539286897084e-06 8.362517433053293e-07 2.6140805902402673 106.33052782125417 -19.130902571632497 -152.89476487551715 -2.1651743840575642e-06 4.5407075435654256e-07 58.759727063521375 0.0 -6.361109362927033e-15 0.0 -106.91515603573114 -17.91422461703437 154.0585116076119 1.4559353300508713e-06 8.097324000837946e-07 -71.89570226332859 5.963540027744096e-16 4.969616689786745e-17 -1.7890620083232284e-15 95.42936615493656 -77.83891023331705 169.25684665378046 46.2628325858873 13.100953966809204 -81.66819461223731 -3.1805546814635176e-15 2.3854160110976384e-15 -5.168401357378216e-15 -118.02499799529119 -80.8342870208272 168.07715128893537 -51.884979046240176 8.984163286078838 84.82898961084348 3.034560579909484e-32 1.5902773407317584e-15 -2.1866313435061676e-15
121.9000015258789 -14.0 17.200000762939453 22.817073263200136 -3.5844997898079307 -93.67147141495991 -6.328748638076565e-07 1.4048383470762545e-06 2.8965400926780265 106.01426524323419 -18.709372817257115 -152.93630541028716 -2.058723547221414e-06 -4.532211251605005e-06 58.41528392875641 -4.4139062980501586e-32 -6.3611093629270335e-15 -7.951386703658792e-16 -106.80605124425308 -17.783162584363676 152.8631164208771 2.053538610293491e-06 2.9284899731575413e-06 -70.68154969341147 5.963540027744096e-16 5.172546443027529e-33 9.939233379573492e-16 95.58602298714443 -77.82129159269928 168.80371728241775 46.21786996978444 13.325915376557647 -83.34863490786 -1.5902773407317584e-15 -6.896728590703373e-32 4.969616689786745e-15 -117.54435676054491 -81.03704625537706 168.1036869094035 -51.78547164291053 8.748910241502763 88.51951398071134 0.0 0.0 8.34895603884173e-15
122.0 -14.0 17.200000762939453 22.501273647894976 -3.9338726169364433 -93.90753263597784 -1.5982039517651092e-06 8.8532917509227e-07 1.640546522198588 105.19922087738921 -16.816042384450377 -153.5555213250298 3.0513679754676546e-06 -4.8301367645857255e-06 58.1258281056064 -2.648343778830095e-31 -6.361109362927035e-15 -4.770832022195277e-15 -107.0425608550161 -19.070037043824758 152.34521043435967 8.181463783703961e-07 -8.268879470683884e-07 -70.42526995512053 -2.9817700138720476e-15 -4.9696166897867505e-17 1.7890620083232284e-15 93.28739177449735 -77.79077212237144 166.68788983188406 46.159462818040204 13.3106453678494 -84.42982053453922 1.5902773407317582e-15 1.5902773407317582e-15 -1.3914926731402884e-15 -118.31691883800944 -81.42687095343592 167.72344320021972 -51.97127145950391 8.678402099877507 87.90939003165524 -3.1805546814635168e-15 -1.5902773407317582e-15 -4.373262687012335e-15
